STARTFONT 2.1
FONT -DEC-Present Bullets-Medium-R-Normal--8-80-100-100-P-105-DEC-FontSpecific
SIZE 8 100 100
FONTBOUNDINGBOX 16 11 0 -1

STARTPROPERTIES 10
COPYRIGHT "Copyright 1990,  Digital Equipment Corporation Created by Loree Nelson, The Artis Consultancy"
POINT_SIZE 80
WEIGHT 10
RESOLUTION_X 100
RESOLUTION_Y 100
X_HEIGHT 7
QUAD_WIDTH 9
DEFAULT_CHAR 0
FONT_DESCENT 2
FONT_ASCENT 10
ENDPROPERTIES

CHARS 59

STARTCHAR space
ENCODING 32
SWIDTH 250 0
DWIDTH 3 0
BBX 0 0 0 0
BITMAP
ENDCHAR

STARTCHAR A
ENCODING 65
SWIDTH 704 0
DWIDTH 8 0
BBX 6 7 0 1
BITMAP
0C
08
FC
9C
B4
B4
FC
ENDCHAR

STARTCHAR B
ENCODING 66
SWIDTH 616 0
DWIDTH 7 0
BBX 6 8 0 0
BITMAP
0C
0C
18
18
B0
F0
60
60
ENDCHAR

STARTCHAR C
ENCODING 67
SWIDTH 740 0
DWIDTH 8 0
BBX 6 8 0 0
BITMAP
80
40
30
0C
08
30
40
80
ENDCHAR

STARTCHAR D
ENCODING 68
SWIDTH 953 0
DWIDTH 10 0
BBX 10 9 0 0
BITMAP
0400
0C00
0A00
F3C0
4080
2100
1200
3F00
2100
ENDCHAR

STARTCHAR E
ENCODING 69
SWIDTH 1048 0
DWIDTH 12 0
BBX 10 10 0 0
BITMAP
0400
0C00
0C00
FFC0
7F80
3F00
1E00
1E00
3300
2100
ENDCHAR

STARTCHAR F
ENCODING 70
SWIDTH 732 0
DWIDTH 8 0
BBX 7 6 0 1
BITMAP
08
FC
FE
FE
FC
08
ENDCHAR

STARTCHAR G
ENCODING 71
SWIDTH 732 0
DWIDTH 8 0
BBX 7 6 0 1
BITMAP
08
F4
82
82
F4
08
ENDCHAR

STARTCHAR H
ENCODING 72
SWIDTH 1000 0
DWIDTH 11 0
BBX 7 2 6 1
BITMAP
0E
FE
ENDCHAR

STARTCHAR I
ENCODING 73
SWIDTH 787 0
DWIDTH 9 0
BBX 6 8 0 0
BITMAP
C0
E0
30
18
0C
0C
0C
0C
ENDCHAR

STARTCHAR J
ENCODING 74
SWIDTH 756 0
DWIDTH 8 0
BBX 6 9 0 -1
BITMAP
80
4C
28
30
30
30
48
48
04
ENDCHAR

STARTCHAR K
ENCODING 75
SWIDTH 935 0
DWIDTH 10 0
BBX 8 9 0 0
BITMAP
C2
66
24
18
18
18
24
66
C3
ENDCHAR

STARTCHAR L
ENCODING 76
SWIDTH 1000 0
DWIDTH 11 0
BBX 10 8 0 0
BITMAP
6000
F800
F400
2B00
1280
0DC0
02C0
01C0
ENDCHAR

STARTCHAR M
ENCODING 77
SWIDTH 1440 0
DWIDTH 16 0
BBX 15 8 0 -1
BITMAP
0FE0
3FF8
7FFC
FFFE
D876
3878
7FFC
7FFC
ENDCHAR

STARTCHAR N
ENCODING 78
SWIDTH 1292 0
DWIDTH 14 0
BBX 11 7 0 0
BITMAP
7FC0
FFE0
FFE0
BFA0
7FC0
7FC0
7FC0
ENDCHAR

STARTCHAR O
ENCODING 79
SWIDTH 1488 0
DWIDTH 16 0
BBX 16 7 0 0
BITMAP
3FFF
383C
58E0
5CE0
53E0
F060
E030
ENDCHAR

STARTCHAR P
ENCODING 80
SWIDTH 1292 0
DWIDTH 14 0
BBX 13 6 0 1
BITMAP
0FF0
F1F8
E780
FBC0
E3C0
DF80
ENDCHAR

STARTCHAR Q
ENCODING 81
SWIDTH 844 0
DWIDTH 9 0
BBX 7 7 0 1
BITMAP
20
30
90
FE
90
30
20
ENDCHAR

STARTCHAR R
ENCODING 82
SWIDTH 1195 0
DWIDTH 13 0
BBX 9 8 0 0
BITMAP
3E00
4100
4100
7F00
BE80
FF80
4100
4100
ENDCHAR

STARTCHAR S
ENCODING 83
SWIDTH 1376 0
DWIDTH 15 0
BBX 14 7 0 0
BITMAP
FFFC
C00C
A014
9FE4
9024
A014
FFFC
ENDCHAR

STARTCHAR T
ENCODING 84
SWIDTH 1098 0
DWIDTH 12 0
BBX 10 11 0 -1
BITMAP
1200
4C80
3F40
BF00
3080
3480
3280
1080
1F00
1F00
1100
ENDCHAR

STARTCHAR U
ENCODING 85
SWIDTH 992 0
DWIDTH 11 0
BBX 9 10 0 0
BITMAP
0800
4100
1C00
2200
A280
2A00
2A00
1C00
1C00
0800
ENDCHAR

STARTCHAR V
ENCODING 86
SWIDTH 1175 0
DWIDTH 13 0
BBX 10 8 0 0
BITMAP
7E00
4200
4200
4200
7F00
3C80
7E80
FFC0
ENDCHAR

STARTCHAR W
ENCODING 87
SWIDTH 790 0
DWIDTH 9 0
BBX 7 8 0 0
BITMAP
38
C6
EE
9A
8A
8A
4E
38
ENDCHAR

STARTCHAR X
ENCODING 88
SWIDTH 860 0
DWIDTH 9 0
BBX 7 8 0 0
BITMAP
FE
EE
06
02
02
06
EE
FE
ENDCHAR

STARTCHAR Y
ENCODING 89
SWIDTH 804 0
DWIDTH 9 0
BBX 7 8 0 0
BITMAP
10
18
F4
8A
8A
F4
18
10
ENDCHAR

STARTCHAR Z
ENCODING 90
SWIDTH 1220 0
DWIDTH 13 0
BBX 10 8 1 0
BITMAP
C000
B800
4700
3FC0
3F80
3C00
E000
8000
ENDCHAR

STARTCHAR bracketleft
ENCODING 91
SWIDTH 1260 0
DWIDTH 14 0
BBX 11 5 0 1
BITMAP
0100
0180
FFE0
0180
0100
ENDCHAR

STARTCHAR backslash
ENCODING 92
SWIDTH 915 0
DWIDTH 10 0
BBX 9 9 0 -1
BITMAP
5D00
C980
7F00
AA80
FF80
AA80
7F00
EB80
5D00
ENDCHAR

STARTCHAR bracketright
ENCODING 93
SWIDTH 1292 0
DWIDTH 14 0
BBX 12 5 0 1
BITMAP
1FF0
BE00
BF00
BF00
BE00
ENDCHAR

STARTCHAR asciicircum
ENCODING 94
SWIDTH 940 0
DWIDTH 10 0
BBX 6 1 2 3
BITMAP
FC
ENDCHAR

STARTCHAR underscore
ENCODING 95
SWIDTH 1164 0
DWIDTH 13 0
BBX 10 1 1 3
BITMAP
FFC0
ENDCHAR

STARTCHAR grave
ENCODING 96
SWIDTH 720 0
DWIDTH 8 0
BBX 6 6 0 1
BITMAP
78
84
84
84
84
78
ENDCHAR

STARTCHAR a
ENCODING 97
SWIDTH 720 0
DWIDTH 8 0
BBX 6 6 0 1
BITMAP
78
FC
FC
FC
FC
78
ENDCHAR

STARTCHAR b
ENCODING 98
SWIDTH 1272 0
DWIDTH 14 0
BBX 11 5 1 1
BITMAP
08C0
DDE0
DDE0
09E0
00C0
ENDCHAR

STARTCHAR c
ENCODING 99
SWIDTH 556 0
DWIDTH 6 0
BBX 4 8 0 0
BITMAP
C0
E0
F0
F0
F0
F0
E0
C0
ENDCHAR

STARTCHAR d
ENCODING 100
SWIDTH 616 0
DWIDTH 7 0
BBX 5 8 0 0
BITMAP
40
30
18
08
18
10
70
E0
ENDCHAR

STARTCHAR e
ENCODING 101
SWIDTH 956 0
DWIDTH 11 0
BBX 8 8 1 0
BITMAP
18
06
01
02
0C
18
70
E0
ENDCHAR

STARTCHAR f
ENCODING 102
SWIDTH 932 0
DWIDTH 10 0
BBX 9 8 0 0
BITMAP
0800
1C00
1C00
3E00
3200
7300
6100
FF80
ENDCHAR

STARTCHAR g
ENCODING 103
SWIDTH 956 0
DWIDTH 11 0
BBX 10 7 1 1
BITMAP
0C00
0C00
1E00
3F00
3F00
7F80
FFC0
ENDCHAR

STARTCHAR h
ENCODING 104
SWIDTH 620 0
DWIDTH 7 0
BBX 7 9 0 0
BITMAP
10
38
38
7C
FE
7C
38
38
10
ENDCHAR

STARTCHAR i
ENCODING 105
SWIDTH 620 0
DWIDTH 7 0
BBX 7 9 0 0
BITMAP
10
38
28
64
E6
64
28
38
10
ENDCHAR

STARTCHAR j
ENCODING 106
SWIDTH 1023 0
DWIDTH 11 0
BBX 11 7 0 1
BITMAP
0400
0E00
3F80
FFE0
3F80
0E00
0400
ENDCHAR

STARTCHAR k
ENCODING 107
SWIDTH 930 0
DWIDTH 10 0
BBX 9 9 1 -1
BITMAP
0800
0800
1C00
3E00
FF80
3E00
1C00
0800
0800
ENDCHAR

STARTCHAR l
ENCODING 108
SWIDTH 548 0
DWIDTH 6 0
BBX 5 8 1 0
BITMAP
C0
E0
F0
F8
F8
F0
E0
C0
ENDCHAR

STARTCHAR m
ENCODING 109
SWIDTH 896 0
DWIDTH 10 0
BBX 7 3 1 2
BITMAP
FE
78
60
ENDCHAR

STARTCHAR n
ENCODING 110
SWIDTH 1000 0
DWIDTH 11 0
BBX 8 4 2 2
BITMAP
C0
3C
0F
10
ENDCHAR

STARTCHAR o
ENCODING 111
SWIDTH 1000 0
DWIDTH 11 0
BBX 11 4 0 3
BITMAP
0200
0300
FF80
FFE0
ENDCHAR

STARTCHAR p
ENCODING 112
SWIDTH 1096 0
DWIDTH 12 0
BBX 11 3 0 2
BITMAP
3FE0
7FC0
FF80
ENDCHAR

STARTCHAR q
ENCODING 113
SWIDTH 704 0
DWIDTH 8 0
BBX 8 9 0 0
BITMAP
0F
1E
1E
1C
3C
38
78
78
F0
ENDCHAR

STARTCHAR r
ENCODING 114
SWIDTH 1036 0
DWIDTH 11 0
BBX 12 9 0 0
BITMAP
0030
0020
0060
0060
00C0
01C0
01C0
0380
FF80
ENDCHAR

STARTCHAR s
ENCODING 115
SWIDTH 1264 0
DWIDTH 14 0
BBX 11 9 2 0
BITMAP
0020
0020
0020
0060
0060
00E0
03E0
07E0
FFE0
ENDCHAR

STARTCHAR t
ENCODING 116
SWIDTH 884 0
DWIDTH 10 0
BBX 7 7 0 1
BITMAP
FC
82
82
82
82
82
7E
ENDCHAR

STARTCHAR u
ENCODING 117
SWIDTH 844 0
DWIDTH 9 0
BBX 6 5 0 2
BITMAP
FC
FC
FC
FC
FC
ENDCHAR

STARTCHAR v
ENCODING 118
SWIDTH 1176 0
DWIDTH 13 0
BBX 10 4 0 2
BITMAP
FFC0
FFC0
FFC0
FFC0
ENDCHAR

STARTCHAR w
ENCODING 119
SWIDTH 1252 0
DWIDTH 14 0
BBX 11 5 0 1
BITMAP
FDA0
FDA0
FDA0
FDA0
FDA0
ENDCHAR

STARTCHAR x
ENCODING 120
SWIDTH 1244 0
DWIDTH 14 0
BBX 12 6 0 1
BITMAP
0040
FFE0
FFF0
FFF0
FFE0
0040
ENDCHAR

STARTCHAR y
ENCODING 121
SWIDTH 864 0
DWIDTH 10 0
BBX 7 5 0 1
BITMAP
FE
BE
BE
BE
FE
ENDCHAR

STARTCHAR z
ENCODING 122
SWIDTH 704 0
DWIDTH 8 0
BBX 5 5 0 1
BITMAP
F8
88
88
88
F8
ENDCHAR
ENDFONT
